<?xml version="1.0" encoding="UTF-8" standalone="no"?>
<!-- Created with Inkscape (http://www.inkscape.org/) -->

<svg
   width="2453.573"
   height="2021.6632"
   viewBox="0 0 2453.5731 2021.6633"
   version="1.1"
   id="svg1"
   xml:space="preserve"
   inkscape:version="1.4.3 (0d15f75, 2025-12-25)"
   sodipodi:docname="inomeado.svg"
   inkscape:export-filename="inomeado.webp"
   inkscape:export-xdpi="96"
   inkscape:export-ydpi="96"
   xmlns:inkscape="http://www.inkscape.org/namespaces/inkscape"
   xmlns:sodipodi="http://sodipodi.sourceforge.net/DTD/sodipodi-0.dtd"
   xmlns:xlink="http://www.w3.org/1999/xlink"
   xmlns="http://www.w3.org/2000/svg"
   xmlns:svg="http://www.w3.org/2000/svg"><sodipodi:namedview
     id="namedview1"
     pagecolor="#ffffff"
     bordercolor="#000000"
     borderopacity="0.25"
     inkscape:showpageshadow="2"
     inkscape:pageopacity="0.0"
     inkscape:pagecheckerboard="0"
     inkscape:deskcolor="#d1d1d1"
     inkscape:document-units="px"
     inkscape:zoom="0.32652559"
     inkscape:cx="787.0746"
     inkscape:cy="1373.5524"
     inkscape:window-width="1920"
     inkscape:window-height="959"
     inkscape:window-x="0"
     inkscape:window-y="32"
     inkscape:window-maximized="1"
     inkscape:current-layer="svg1"
     inkscape:export-bgcolor="#ffffff00" /><defs
     id="defs1"><linearGradient
       id="linearGradient71"
       inkscape:collect="always"><stop
         style="stop-color:#0dd5fd;stop-opacity:1;"
         offset="0.54687274"
         id="stop72" /><stop
         style="stop-color:#00acfb;stop-opacity:1;"
         offset="0.94724065"
         id="stop73" /></linearGradient><linearGradient
       inkscape:collect="always"
       xlink:href="#linearGradient71"
       id="linearGradient73"
       x1="651.57251"
       y1="274.39084"
       x2="639.45178"
       y2="621.48456"
       gradientUnits="userSpaceOnUse"
       gradientTransform="matrix(4.3779532,0,0,4.3779532,-1472.6929,-1089.8173)" /></defs><g
     inkscape:label="Camada 1"
     inkscape:groupmode="layer"
     id="layer1"
     style="display:inline"
     transform="translate(340.00175,92.424459)"><path
       style="display:inline;opacity:1;fill:#0419b8;fill-opacity:1;fill-rule:nonzero;stroke:#0418b8;stroke-width:0;stroke-dasharray:none;stroke-opacity:1"
       d="m 635.2528,1832.0158 c -16.65229,-5.3719 -37.26781,-25.5269 -403.49493,-394.484 C 19.487515,1223.6792 -166.91116,1033.6252 -182.46143,1015.1896 -298.6112,877.48882 -350.94998,722.99825 -338.10094,555.78203 c 8.18287,-106.49157 34.71208,-208.90145 74.25297,-286.6366 C -200.00262,143.62916 -91.473202,39.794091 42.751907,-24.192678 112.41959,-57.404089 186.1701,-80.420214 251.55147,-89.355004 c 45.18056,-6.174231 155.00121,-2.592717 208.51473,6.800144 158.11573,27.752983 300.76291,102.80629 405.268,213.2304 l 30.72317,32.46322 -29.5585,30.49867 C 752.85399,310.89726 667.90568,436.67739 636.0037,534.92423 c -19.0602,58.69894 -25.57814,106.1436 -27.53543,200.43399 -2.2075,106.34306 4.19258,168.12592 26.38355,254.69204 11.98631,46.75804 18.04032,61.47174 84.63038,205.68734 118.73776,257.1527 149.80822,330.8876 168.54926,399.9923 16.42784,60.575 10.10115,114.7948 -18.10624,155.1701 -24.41377,34.945 -72.58903,65.9211 -124.87832,80.2945 -31.85371,8.7562 -83.98781,9.1462 -109.7941,0.8213 z"
       id="path46" /><path
       style="display:inline;opacity:1;fill:#0d50fa;fill-opacity:1;fill-rule:nonzero;stroke:#0418b8;stroke-width:0;stroke-dasharray:none;stroke-opacity:1"
       d="m 828.50617,1925.9673 c -32.89377,-3.7487 -79.04063,-18.8578 -112.39411,-36.7993 -23.61928,-12.7054 -89.45441,-60.1314 -89.45441,-62.3988 0,-0.5705 18.27699,4.5927 41.89574,5.3287 49.97567,1.5571 77.77321,-5.7245 119.98905,-26.8206 70.43415,-35.1973 103.70383,-84.2627 103.24829,-156.9505 -0.41724,-66.5784 -27.6641,-135.8596 -161.47743,-427.1007 -17.71972,-38.5665 -30.96074,-71.5894 -30.96074,-73.3841 0,-1.7946 7.7692,7.1344 17.2649,19.8422 51.84239,69.3791 115.54647,137.7489 207.31377,222.4974 119.66207,110.5098 214.78647,218.7597 240.51737,273.7047 8.2321,17.5784 9.183,23.3232 9.0767,54.8309 -0.1874,55.5349 -18.4423,109.2171 -44.4401,130.6852 -42.8527,35.3863 -141.16435,69.2466 -223.58948,77.0082 -40.75625,3.8379 -39.35298,3.8459 -76.98955,-0.4433 z"
       id="path47"
       inkscape:label="path47"
       sodipodi:nodetypes="sssssssssssssss" /><path
       style="display:inline;opacity:1;fill:url(#linearGradient73);fill-rule:nonzero;stroke:#0418b8;stroke-width:0;stroke-linecap:butt;stroke-dasharray:none;stroke-opacity:1"
       d="m 1148.2012,1829.7067 c 1.2634,-3.6871 4.9318,-14.2457 8.1522,-23.4635 16.6378,-47.6242 17.641,-103.8484 2.4455,-137.04 -25.1191,-54.867 -125.3785,-168.0071 -252.00328,-284.3786 C 786.23225,1274.024 698.1069,1168.8596 656.53412,1086.1755 587.69216,949.25555 571.9047,681.23918 623.84228,531.18085 650.35088,454.59211 707.78936,362.12204 787.13958,268.2891 821.49877,227.6589 922.97194,121.89429 954.5755,93.772282 c 93.8648,-83.524522 190.8402,-128.757792 299.144,-162.778259 53.0878,-16.67602 95.667,-18.342611 165.9201,-18.389591 68.6065,-0.04601 111.4378,4.159675 173.5433,17.039787 236.4757,49.042919 437.4489,241.635441 497.1385,476.407341 34.0948,134.10191 30.7021,264.12555 -10.253,392.93911 -15.4707,48.65911 -55.7926,130.29179 -83.0736,168.18462 -14.37,19.95944 -90.8454,100.30941 -243.839,256.19261 -313.4143,319.334 -607.6698,614.2629 -604.9546,606.3388 z m 209.4278,-417.9941 c 25.1285,-7.4649 56.5126,-32.3183 67.1565,-53.1823 20.7241,-40.6228 11.1191,-129.3123 -17.0559,-157.4873 -9.0715,-9.0715 -19.4156,-8.3235 -23.2186,1.6789 -5.0902,13.3884 -17.4083,18.9488 -45.9364,20.7355 -33.4457,2.095 -41.2801,3.7533 -41.2801,8.7381 0,2.217 8.5176,16.4426 18.9282,31.6123 18.005,26.2359 19.0062,28.7944 20.5246,52.4552 1.9741,30.7603 -4.0128,50.6032 -22.7033,75.2479 -14.9663,19.734 -16.0081,23.1896 -7.5318,24.9828 8.8443,1.871 37.8599,-0.8429 51.1168,-4.7811 z m -79.6086,-7.5813 c 23.6588,-18.065 30.9852,-36.3151 30.9965,-77.2129 0.01,-27.7576 -1.1723,-35.5358 -6.8643,-45.251 -9.0979,-15.5283 -18.7979,-16.7267 -28.2253,-3.4872 -10.0037,14.049 -23.3722,20.2468 -43.6713,20.2468 -18.4654,0 -33.4132,-6.0224 -47.4032,-19.0987 -12.977,-12.1296 -22.9904,-9.3577 -32.2049,8.9152 -15.0895,29.9232 -7.1335,86.99 15.0932,108.2625 15.4162,14.7541 29.7083,18.9638 64.8709,19.1071 31.6607,0.1292 32.4536,-0.063 47.4084,-11.4818 z m -24.944,-135.9534 c 11.7961,-7.1918 23.9079,-29.1754 24.0329,-43.6208 0.1265,-14.6345 -13.904,-37.8669 -26.7417,-44.2801 -15.6363,-7.8111 -35.951,-7.4289 -49.6689,0.9347 -22.0463,13.4411 -30.1343,50.3956 -15.8133,72.2522 13.725,20.947 46.4025,27.9981 68.191,14.714 z m 98.8468,-78.189 c 24.8642,-10.3889 42.3658,-45.5143 36.2147,-72.6817 -5.6997,-25.1734 -17.0326,-39.5708 -38.0657,-48.359 -48.4603,-20.2479 -98.5939,24.0311 -86.1131,76.0568 4.5173,18.8302 19.5661,38.1385 34.949,44.8413 13.2418,5.7698 39.379,5.8401 53.0151,0.1427 z"
       id="path48"
       sodipodi:nodetypes="ssssssssassssssssssssssssssscsssssssssssssssssssss" /></g><path
     style="opacity:1;fill:#fdfdfd;fill-opacity:1;fill-rule:nonzero;stroke:#ff0000;stroke-width:0;stroke-linecap:butt;stroke-dasharray:none;stroke-opacity:1"
     d="m 1545.7039,1506.4283 c -12.9402,-1.5693 -21.9636,-4.6943 -30.6758,-10.6238 -10.9548,-7.4562 -19.3523,-19.0418 -24.4992,-33.8008 -11.9284,-34.2043 -8.4331,-74.8593 7.8868,-91.7359 7.3437,-7.5943 13.856,-6.9748 24.6087,2.341 16.4589,14.2593 30.0147,19.074 51.188,18.1806 18.0138,-0.7601 28.2819,-5.5428 38.5454,-17.9534 3.0147,-3.6452 6.8297,-7.541 8.4781,-8.6574 7.3774,-4.9964 15.244,-0.2569 22.0862,13.3064 4.0665,8.0605 4.5504,12.332 4.5493,40.1445 0,21.941 -0.2675,27.3988 -1.6505,33.8298 -4.4542,20.7088 -13.2864,33.7086 -32.1069,47.2562 -11.31,8.1413 -11.3107,8.1415 -38.4116,8.337 -12.9004,0.093 -26.3998,-0.1878 -29.9985,-0.6242 z"
     id="path94" /><path
     style="opacity:1;fill:#fdfdfd;fill-opacity:1;fill-rule:nonzero;stroke:#ff0000;stroke-width:0;stroke-linecap:butt;stroke-dasharray:none;stroke-opacity:1"
     d="m 1645.6171,1508.0836 c -6.0911,-2.2061 -4.6494,-5.7098 11.2346,-27.3053 7.3389,-9.9775 15.0542,-25.4081 17.817,-35.6339 1.889,-6.9915 2.0669,-9.4987 2.0158,-28.417 -0.082,-30.4074 -0.2795,-31.0092 -19.8899,-60.5765 -13.1117,-19.769 -19.7562,-31.32 -18.8548,-32.7782 2.0011,-3.2379 9.8227,-4.6966 36.5199,-6.8105 33.8508,-2.6803 42.8204,-6.3089 50.1702,-20.2956 4.0816,-7.7674 7.4432,-9.7754 13.5167,-8.075 15.0878,4.2244 29.2111,33.4833 35.2641,73.0551 2.2532,14.7314 2.2421,45.4884 -0.024,59.0892 -4.2403,25.4776 -12.1987,39.923 -31.3601,56.9227 -13.3106,11.8089 -33.7086,23.6371 -46.3442,26.8734 -14.8728,3.8093 -44.0927,6.1155 -50.0679,3.9516 z"
     id="path95" /><path
     style="opacity:1;fill:#fdfdfd;fill-opacity:1;fill-rule:nonzero;stroke:#ff0000;stroke-width:0;stroke-linecap:butt;stroke-dasharray:none;stroke-opacity:1"
     d="m 1554.5025,1365.2376 c -13.1113,-3.4433 -25.4167,-12.4456 -30.8739,-22.5861 -9.8772,-18.3536 -5.1846,-47.3125 10.1428,-62.5935 12.6628,-12.6244 33.969,-16.0941 52.5256,-8.5539 9.7551,3.9638 17.9843,12.6041 24.7127,25.9467 6.398,12.6876 7.0828,21.6885 2.5658,33.7208 -7.0257,18.7149 -18.229,30.155 -33.3999,34.1065 -6.5717,1.7117 -19.0765,1.6919 -25.6731,-0.041 z"
     id="path96" /><path
     style="opacity:1;fill:#fdfdfd;fill-opacity:1;fill-rule:nonzero;stroke:#ff0000;stroke-width:0;stroke-linecap:butt;stroke-dasharray:none;stroke-opacity:1"
     d="m 1655.5405,1285.7841 c -6.7614,-0.9071 -14.6393,-3.0978 -18.7272,-5.2078 -13.7746,-7.1098 -27.7329,-25.6287 -32.3505,-42.9209 -1.9581,-7.3322 -2.1897,-23.717 -0.4327,-30.6076 6.8206,-26.7498 27.831,-46.0689 53.9989,-49.6518 23.2053,-3.1773 48.9517,8.969 60.5447,28.563 16.5475,27.9684 12.1347,61.6873 -11.075,84.624 -11.2398,11.1076 -20.1383,14.6436 -38.4263,15.2696 -5.7058,0.1954 -11.7952,0.1645 -13.5319,-0.069 z"
     id="path97" /></svg>
